<mxfile host="Electron" modified="2024-07-17T17:16:52.729Z" agent="Mozilla/5.0 (Windows NT 10.0; Win64; x64) AppleWebKit/537.36 (KHTML, like Gecko) draw.io/24.6.4 Chrome/124.0.6367.207 Electron/30.0.6 Safari/537.36" etag="FstOq7HhNuGs2X2q96PH" version="24.6.4" type="device">
  <diagram name="StrÃ¡nka-1" id="_8IOg7pSY4LDhnt3MVjc">
    <mxGraphModel dx="989" dy="582" grid="1" gridSize="10" guides="1" tooltips="1" connect="1" arrows="1" fold="1" page="1" pageScale="1" pageWidth="827" pageHeight="1169" math="0" shadow="0">
      <root>
        <mxCell id="0" />
        <mxCell id="1" parent="0" />
        <mxCell id="hwOO48WI-0XrSRvvIXi3-33" value="" style="group" parent="1" vertex="1" connectable="0">
          <mxGeometry x="40" y="313" width="150" height="154" as="geometry" />
        </mxCell>
        <mxCell id="hwOO48WI-0XrSRvvIXi3-25" value="" style="shape=cube;whiteSpace=wrap;html=1;boundedLbl=1;backgroundOutline=1;darkOpacity=0.05;darkOpacity2=0.1;flipV=0;flipH=1;size=10;" parent="hwOO48WI-0XrSRvvIXi3-33" vertex="1">
          <mxGeometry width="150" height="154" as="geometry" />
        </mxCell>
        <mxCell id="hwOO48WI-0XrSRvvIXi3-26" value="&amp;lt;&amp;lt;Node&amp;gt;&amp;gt;&lt;br&gt;Public&lt;span style=&quot;background-color: initial;&quot;&gt;&amp;nbsp;Webserver&lt;/span&gt;" style="text;html=1;align=center;verticalAlign=middle;resizable=0;points=[];autosize=1;strokeColor=none;fillColor=none;" parent="hwOO48WI-0XrSRvvIXi3-33" vertex="1">
          <mxGeometry x="15" y="16.77777777777778" width="120" height="40" as="geometry" />
        </mxCell>
        <mxCell id="m8l0LJMs6shDdEdT_VAD-6" value="" style="group" vertex="1" connectable="0" parent="hwOO48WI-0XrSRvvIXi3-33">
          <mxGeometry x="10" y="87" width="120" height="40" as="geometry" />
        </mxCell>
        <mxCell id="m8l0LJMs6shDdEdT_VAD-7" value="&lt;div&gt;&amp;lt;&amp;lt;Artifact&amp;gt;&amp;gt;&lt;/div&gt;&amp;nbsp;Deployed &lt;br&gt;&amp;nbsp;Webgl build" style="rounded=0;whiteSpace=wrap;html=1;align=left;container=1;" vertex="1" parent="m8l0LJMs6shDdEdT_VAD-6">
          <mxGeometry y="-10" width="120" height="50" as="geometry">
            <mxRectangle width="110" height="40" as="alternateBounds" />
          </mxGeometry>
        </mxCell>
        <mxCell id="m8l0LJMs6shDdEdT_VAD-8" value="" style="whiteSpace=wrap;html=1;shape=mxgraph.basic.document" vertex="1" parent="m8l0LJMs6shDdEdT_VAD-6">
          <mxGeometry x="100" y="6.67" width="12.5" height="13.33" as="geometry" />
        </mxCell>
        <mxCell id="hwOO48WI-0XrSRvvIXi3-39" value="" style="endArrow=none;html=1;rounded=0;entryX=0;entryY=0;entryDx=150;entryDy=55;entryPerimeter=0;exitX=-0.017;exitY=0.416;exitDx=0;exitDy=0;exitPerimeter=0;" parent="1" source="hwOO48WI-0XrSRvvIXi3-25" edge="1">
          <mxGeometry width="50" height="50" relative="1" as="geometry">
            <mxPoint x="580" y="480" as="sourcePoint" />
            <mxPoint x="330" y="375" as="targetPoint" />
          </mxGeometry>
        </mxCell>
        <mxCell id="hwOO48WI-0XrSRvvIXi3-47" value="https:80" style="edgeLabel;html=1;align=center;verticalAlign=middle;resizable=0;points=[];" parent="hwOO48WI-0XrSRvvIXi3-39" vertex="1" connectable="0">
          <mxGeometry x="-0.0121" y="-1" relative="1" as="geometry">
            <mxPoint as="offset" />
          </mxGeometry>
        </mxCell>
        <mxCell id="m8l0LJMs6shDdEdT_VAD-4" value="" style="endArrow=classic;html=1;rounded=0;exitX=0.993;exitY=0.39;exitDx=0;exitDy=0;exitPerimeter=0;" edge="1" parent="1" source="m8l0LJMs6shDdEdT_VAD-7">
          <mxGeometry width="50" height="50" relative="1" as="geometry">
            <mxPoint x="190" y="410" as="sourcePoint" />
            <mxPoint x="330" y="408" as="targetPoint" />
          </mxGeometry>
        </mxCell>
        <mxCell id="m8l0LJMs6shDdEdT_VAD-5" value="REST API data" style="edgeLabel;html=1;align=center;verticalAlign=middle;resizable=0;points=[];" vertex="1" connectable="0" parent="m8l0LJMs6shDdEdT_VAD-4">
          <mxGeometry x="-0.0363" y="-3" relative="1" as="geometry">
            <mxPoint as="offset" />
          </mxGeometry>
        </mxCell>
        <mxCell id="m8l0LJMs6shDdEdT_VAD-9" value="&amp;nbsp;Webgl build is a copy of a build in an&amp;nbsp; &amp;nbsp;iframe from Django container. Sends&amp;nbsp; &amp;nbsp;feedback data through REST API." style="shape=note;size=20;whiteSpace=wrap;html=1;align=left;" vertex="1" parent="1">
          <mxGeometry x="31.75" y="520" width="228.25" height="80" as="geometry" />
        </mxCell>
        <mxCell id="m8l0LJMs6shDdEdT_VAD-10" value="" style="endArrow=none;dashed=1;html=1;dashPattern=1 3;strokeWidth=2;rounded=0;" edge="1" parent="1">
          <mxGeometry width="50" height="50" relative="1" as="geometry">
            <mxPoint x="123" y="440" as="sourcePoint" />
            <mxPoint x="123" y="516" as="targetPoint" />
          </mxGeometry>
        </mxCell>
        <mxCell id="m8l0LJMs6shDdEdT_VAD-18" value="" style="shape=cube;whiteSpace=wrap;html=1;boundedLbl=1;backgroundOutline=1;darkOpacity=0.05;darkOpacity2=0.1;flipV=0;flipH=1;size=10;" vertex="1" parent="1">
          <mxGeometry x="320" y="90" width="540" height="560" as="geometry" />
        </mxCell>
        <mxCell id="m8l0LJMs6shDdEdT_VAD-19" value="&amp;lt;&amp;lt;Device&amp;gt;&amp;gt;&lt;div&gt;&lt;u&gt;UJEP server&lt;/u&gt;&lt;/div&gt;" style="text;html=1;align=center;verticalAlign=middle;resizable=0;points=[];autosize=1;strokeColor=none;fillColor=none;" vertex="1" parent="1">
          <mxGeometry x="544.9978947368421" y="109.99871725383925" width="90" height="40" as="geometry" />
        </mxCell>
        <mxCell id="m8l0LJMs6shDdEdT_VAD-21" value="" style="shape=cube;whiteSpace=wrap;html=1;boundedLbl=1;backgroundOutline=1;darkOpacity=0.05;darkOpacity2=0.1;flipV=0;flipH=1;size=10;" vertex="1" parent="1">
          <mxGeometry x="345" y="160" width="490" height="470" as="geometry" />
        </mxCell>
        <mxCell id="m8l0LJMs6shDdEdT_VAD-22" value="&amp;lt;&amp;lt;Virtual machine&amp;gt;&amp;gt;&lt;div&gt;&lt;u&gt;GDTwin virtual machine&lt;/u&gt;&lt;/div&gt;" style="text;html=1;align=center;verticalAlign=middle;resizable=0;points=[];autosize=1;strokeColor=none;fillColor=none;" vertex="1" parent="1">
          <mxGeometry x="514.99659188956" y="179.99691343854613" width="150" height="40" as="geometry" />
        </mxCell>
        <mxCell id="m8l0LJMs6shDdEdT_VAD-11" value="" style="shape=cube;whiteSpace=wrap;html=1;boundedLbl=1;backgroundOutline=1;darkOpacity=0.05;darkOpacity2=0.1;flipV=0;flipH=1;size=10;" vertex="1" parent="1">
          <mxGeometry x="366.37" y="240" width="198.63" height="380" as="geometry" />
        </mxCell>
        <mxCell id="m8l0LJMs6shDdEdT_VAD-12" value="&amp;lt;&amp;lt;Service&amp;gt;&amp;gt;&lt;div&gt;&lt;u&gt;GDTwin service&lt;/u&gt;&lt;/div&gt;" style="text;html=1;align=center;verticalAlign=middle;resizable=0;points=[];autosize=1;strokeColor=none;fillColor=none;" vertex="1" parent="1">
          <mxGeometry x="405.00478947368424" y="257.5609756097561" width="110" height="40" as="geometry" />
        </mxCell>
        <mxCell id="m8l0LJMs6shDdEdT_VAD-13" value="" style="group" vertex="1" connectable="0" parent="1">
          <mxGeometry x="385" y="313" width="150" height="60" as="geometry" />
        </mxCell>
        <mxCell id="m8l0LJMs6shDdEdT_VAD-24" value="" style="group" vertex="1" connectable="0" parent="m8l0LJMs6shDdEdT_VAD-13">
          <mxGeometry width="150" height="60" as="geometry" />
        </mxCell>
        <mxCell id="m8l0LJMs6shDdEdT_VAD-14" value="&lt;span style=&quot;color: rgba(0, 0, 0, 0); font-family: monospace; font-size: 0px; text-align: start; text-wrap: nowrap;&quot;&gt;%3CmxGraphModel%3E%3Croot%3E%3CmxCell%20id%3D%220%22%2F%3E%3CmxCell%20id%3D%221%22%20parent%3D%220%22%2F%3E%3CmxCell%20id%3D%222%22%20value%3D%22%22%20style%3D%22group%22%20vertex%3D%221%22%20connectable%3D%220%22%20parent%3D%221%22%3E%3CmxGeometry%20x%3D%2250%22%20y%3D%22640%22%20width%3D%22610%22%20height%3D%22510%22%20as%3D%22geometry%22%2F%3E%3C%2FmxCell%3E%3CmxCell%20id%3D%223%22%20value%3D%22%22%20style%3D%22shape%3Dcube%3BwhiteSpace%3Dwrap%3Bhtml%3D1%3BboundedLbl%3D1%3BbackgroundOutline%3D1%3BdarkOpacity%3D0.05%3BdarkOpacity2%3D0.1%3BflipV%3D0%3BflipH%3D1%3Bsize%3D10%3B%22%20vertex%3D%221%22%20parent%3D%222%22%3E%3CmxGeometry%20width%3D%22610%22%20height%3D%22509.99999999999994%22%20as%3D%22geometry%22%2F%3E%3C%2FmxCell%3E%3CmxCell%20id%3D%224%22%20value%3D%22%26amp%3Blt%3B%26amp%3Blt%3BDevice%26amp%3Bgt%3B%26amp%3Bgt%3B%26lt%3Bdiv%26gt%3BUJEP%20server%26lt%3B%2Fdiv%26gt%3B%22%20style%3D%22text%3Bhtml%3D1%3Balign%3Dcenter%3BverticalAlign%3Dmiddle%3Bresizable%3D0%3Bpoints%3D%5B%5D%3Bautosize%3D1%3BstrokeColor%3Dnone%3BfillColor%3Dnone%3B%22%20vertex%3D%221%22%20parent%3D%222%22%3E%3CmxGeometry%20x%3D%22259.9978947368421%22%20y%3D%2219.998048780487803%22%20width%3D%2290%22%20height%3D%2240%22%20as%3D%22geometry%22%2F%3E%3C%2FmxCell%3E%3C%2Froot%3E%3C%2FmxGraphModel%3E&lt;/span&gt;" style="shape=cube;whiteSpace=wrap;html=1;boundedLbl=1;backgroundOutline=1;darkOpacity=0.05;darkOpacity2=0.1;flipV=0;flipH=1;size=10;" vertex="1" parent="m8l0LJMs6shDdEdT_VAD-24">
          <mxGeometry width="150" height="60" as="geometry" />
        </mxCell>
        <mxCell id="m8l0LJMs6shDdEdT_VAD-15" value="&amp;lt;&amp;lt;Image&amp;gt;&amp;gt;&lt;div&gt;Nginx&lt;/div&gt;" style="text;html=1;align=center;verticalAlign=middle;resizable=0;points=[];autosize=1;strokeColor=none;fillColor=none;" vertex="1" parent="m8l0LJMs6shDdEdT_VAD-24">
          <mxGeometry x="35" y="10" width="80" height="40" as="geometry" />
        </mxCell>
        <mxCell id="m8l0LJMs6shDdEdT_VAD-25" value="&lt;span style=&quot;color: rgba(0, 0, 0, 0); font-family: monospace; font-size: 0px; text-align: start; text-wrap: nowrap;&quot;&gt;%3CmxGraphModel%3E%3Croot%3E%3CmxCell%20id%3D%220%22%2F%3E%3CmxCell%20id%3D%221%22%20parent%3D%220%22%2F%3E%3CmxCell%20id%3D%222%22%20value%3D%22%22%20style%3D%22group%22%20vertex%3D%221%22%20connectable%3D%220%22%20parent%3D%221%22%3E%3CmxGeometry%20x%3D%2250%22%20y%3D%22640%22%20width%3D%22610%22%20height%3D%22510%22%20as%3D%22geometry%22%2F%3E%3C%2FmxCell%3E%3CmxCell%20id%3D%223%22%20value%3D%22%22%20style%3D%22shape%3Dcube%3BwhiteSpace%3Dwrap%3Bhtml%3D1%3BboundedLbl%3D1%3BbackgroundOutline%3D1%3BdarkOpacity%3D0.05%3BdarkOpacity2%3D0.1%3BflipV%3D0%3BflipH%3D1%3Bsize%3D10%3B%22%20vertex%3D%221%22%20parent%3D%222%22%3E%3CmxGeometry%20width%3D%22610%22%20height%3D%22509.99999999999994%22%20as%3D%22geometry%22%2F%3E%3C%2FmxCell%3E%3CmxCell%20id%3D%224%22%20value%3D%22%26amp%3Blt%3B%26amp%3Blt%3BDevice%26amp%3Bgt%3B%26amp%3Bgt%3B%26lt%3Bdiv%26gt%3BUJEP%20server%26lt%3B%2Fdiv%26gt%3B%22%20style%3D%22text%3Bhtml%3D1%3Balign%3Dcenter%3BverticalAlign%3Dmiddle%3Bresizable%3D0%3Bpoints%3D%5B%5D%3Bautosize%3D1%3BstrokeColor%3Dnone%3BfillColor%3Dnone%3B%22%20vertex%3D%221%22%20parent%3D%222%22%3E%3CmxGeometry%20x%3D%22259.9978947368421%22%20y%3D%2219.998048780487803%22%20width%3D%2290%22%20height%3D%2240%22%20as%3D%22geometry%22%2F%3E%3C%2FmxCell%3E%3C%2Froot%3E%3C%2FmxGraphModel%3E&lt;/span&gt;" style="shape=cube;whiteSpace=wrap;html=1;boundedLbl=1;backgroundOutline=1;darkOpacity=0.05;darkOpacity2=0.1;flipV=0;flipH=1;size=10;" vertex="1" parent="1">
          <mxGeometry x="385" y="390" width="150" height="120" as="geometry" />
        </mxCell>
        <mxCell id="m8l0LJMs6shDdEdT_VAD-26" value="&amp;lt;&amp;lt;Image&amp;gt;&amp;gt;&lt;div&gt;Django&lt;/div&gt;" style="text;html=1;align=center;verticalAlign=middle;resizable=0;points=[];autosize=1;strokeColor=none;fillColor=none;" vertex="1" parent="1">
          <mxGeometry x="415" y="400" width="80" height="40" as="geometry" />
        </mxCell>
        <mxCell id="m8l0LJMs6shDdEdT_VAD-27" value="&lt;span style=&quot;color: rgba(0, 0, 0, 0); font-family: monospace; font-size: 0px; text-align: start; text-wrap: nowrap;&quot;&gt;%3CmxGraphModel%3E%3Croot%3E%3CmxCell%20id%3D%220%22%2F%3E%3CmxCell%20id%3D%221%22%20parent%3D%220%22%2F%3E%3CmxCell%20id%3D%222%22%20value%3D%22%22%20style%3D%22group%22%20vertex%3D%221%22%20connectable%3D%220%22%20parent%3D%221%22%3E%3CmxGeometry%20x%3D%2250%22%20y%3D%22640%22%20width%3D%22610%22%20height%3D%22510%22%20as%3D%22geometry%22%2F%3E%3C%2FmxCell%3E%3CmxCell%20id%3D%223%22%20value%3D%22%22%20style%3D%22shape%3Dcube%3BwhiteSpace%3Dwrap%3Bhtml%3D1%3BboundedLbl%3D1%3BbackgroundOutline%3D1%3BdarkOpacity%3D0.05%3BdarkOpacity2%3D0.1%3BflipV%3D0%3BflipH%3D1%3Bsize%3D10%3B%22%20vertex%3D%221%22%20parent%3D%222%22%3E%3CmxGeometry%20width%3D%22610%22%20height%3D%22509.99999999999994%22%20as%3D%22geometry%22%2F%3E%3C%2FmxCell%3E%3CmxCell%20id%3D%224%22%20value%3D%22%26amp%3Blt%3B%26amp%3Blt%3BDevice%26amp%3Bgt%3B%26amp%3Bgt%3B%26lt%3Bdiv%26gt%3BUJEP%20server%26lt%3B%2Fdiv%26gt%3B%22%20style%3D%22text%3Bhtml%3D1%3Balign%3Dcenter%3BverticalAlign%3Dmiddle%3Bresizable%3D0%3Bpoints%3D%5B%5D%3Bautosize%3D1%3BstrokeColor%3Dnone%3BfillColor%3Dnone%3B%22%20vertex%3D%221%22%20parent%3D%222%22%3E%3CmxGeometry%20x%3D%22259.9978947368421%22%20y%3D%2219.998048780487803%22%20width%3D%2290%22%20height%3D%2240%22%20as%3D%22geometry%22%2F%3E%3C%2FmxCell%3E%3C%2Froot%3E%3C%2FmxGraphModel%3E&lt;/span&gt;" style="shape=cube;whiteSpace=wrap;html=1;boundedLbl=1;backgroundOutline=1;darkOpacity=0.05;darkOpacity2=0.1;flipV=0;flipH=1;size=10;" vertex="1" parent="1">
          <mxGeometry x="385" y="530" width="150" height="60" as="geometry" />
        </mxCell>
        <mxCell id="m8l0LJMs6shDdEdT_VAD-28" value="&amp;lt;&amp;lt;Image&amp;gt;&amp;gt;&lt;div&gt;Postgres&lt;/div&gt;" style="text;html=1;align=center;verticalAlign=middle;resizable=0;points=[];autosize=1;strokeColor=none;fillColor=none;" vertex="1" parent="1">
          <mxGeometry x="415" y="540" width="80" height="40" as="geometry" />
        </mxCell>
        <mxCell id="m8l0LJMs6shDdEdT_VAD-29" value="&lt;span style=&quot;color: rgba(0, 0, 0, 0); font-family: monospace; font-size: 0px; text-align: start; text-wrap: nowrap;&quot;&gt;%3CmxGraphModel%3E%3Croot%3E%3CmxCell%20id%3D%220%22%2F%3E%3CmxCell%20id%3D%221%22%20parent%3D%220%22%2F%3E%3CmxCell%20id%3D%222%22%20value%3D%22%22%20style%3D%22group%22%20vertex%3D%221%22%20connectable%3D%220%22%20parent%3D%221%22%3E%3CmxGeometry%20x%3D%2250%22%20y%3D%22640%22%20width%3D%22610%22%20height%3D%22510%22%20as%3D%22geometry%22%2F%3E%3C%2FmxCell%3E%3CmxCell%20id%3D%223%22%20value%3D%22%22%20style%3D%22shape%3Dcube%3BwhiteSpace%3Dwrap%3Bhtml%3D1%3BboundedLbl%3D1%3BbackgroundOutline%3D1%3BdarkOpacity%3D0.05%3BdarkOpacity2%3D0.1%3BflipV%3D0%3BflipH%3D1%3Bsize%3D10%3B%22%20vertex%3D%221%22%20parent%3D%222%22%3E%3CmxGeometry%20width%3D%22610%22%20height%3D%22509.99999999999994%22%20as%3D%22geometry%22%2F%3E%3C%2FmxCell%3E%3CmxCell%20id%3D%224%22%20value%3D%22%26amp%3Blt%3B%26amp%3Blt%3BDevice%26amp%3Bgt%3B%26amp%3Bgt%3B%26lt%3Bdiv%26gt%3BUJEP%20server%26lt%3B%2Fdiv%26gt%3B%22%20style%3D%22text%3Bhtml%3D1%3Balign%3Dcenter%3BverticalAlign%3Dmiddle%3Bresizable%3D0%3Bpoints%3D%5B%5D%3Bautosize%3D1%3BstrokeColor%3Dnone%3BfillColor%3Dnone%3B%22%20vertex%3D%221%22%20parent%3D%222%22%3E%3CmxGeometry%20x%3D%22259.9978947368421%22%20y%3D%2219.998048780487803%22%20width%3D%2290%22%20height%3D%2240%22%20as%3D%22geometry%22%2F%3E%3C%2FmxCell%3E%3C%2Froot%3E%3C%2FmxGraphModel%3E&lt;/span&gt;" style="shape=cube;whiteSpace=wrap;html=1;boundedLbl=1;backgroundOutline=1;darkOpacity=0.05;darkOpacity2=0.1;flipV=0;flipH=1;size=10;" vertex="1" parent="1">
          <mxGeometry x="662" y="553" width="150" height="60" as="geometry" />
        </mxCell>
        <mxCell id="m8l0LJMs6shDdEdT_VAD-30" value="&amp;lt;&amp;lt;Volume&amp;gt;&amp;gt;&lt;div&gt;Database/Configuration&lt;/div&gt;" style="text;html=1;align=center;verticalAlign=middle;resizable=0;points=[];autosize=1;strokeColor=none;fillColor=none;" vertex="1" parent="1">
          <mxGeometry x="657" y="563" width="150" height="40" as="geometry" />
        </mxCell>
        <mxCell id="m8l0LJMs6shDdEdT_VAD-32" value="" style="endArrow=none;dashed=1;html=1;rounded=0;entryX=0;entryY=0;entryDx=0;entryDy=25;entryPerimeter=0;exitX=0;exitY=0;exitDx=0;exitDy=25;exitPerimeter=0;startArrow=open;startFill=0;" edge="1" parent="1" source="m8l0LJMs6shDdEdT_VAD-27" target="m8l0LJMs6shDdEdT_VAD-25">
          <mxGeometry width="50" height="50" relative="1" as="geometry">
            <mxPoint x="925" y="378" as="sourcePoint" />
            <mxPoint x="435" y="378" as="targetPoint" />
            <Array as="points">
              <mxPoint x="595" y="555" />
              <mxPoint x="595" y="415" />
            </Array>
          </mxGeometry>
        </mxCell>
        <mxCell id="m8l0LJMs6shDdEdT_VAD-33" value="Stores data" style="edgeLabel;html=1;align=center;verticalAlign=middle;resizable=0;points=[];" vertex="1" connectable="0" parent="m8l0LJMs6shDdEdT_VAD-32">
          <mxGeometry x="-0.0318" y="-2" relative="1" as="geometry">
            <mxPoint as="offset" />
          </mxGeometry>
        </mxCell>
        <mxCell id="m8l0LJMs6shDdEdT_VAD-34" value="" style="endArrow=open;dashed=1;html=1;rounded=0;exitX=-0.009;exitY=0.907;exitDx=0;exitDy=0;exitPerimeter=0;startArrow=none;startFill=0;endFill=0;" edge="1" parent="1" source="m8l0LJMs6shDdEdT_VAD-11" target="m8l0LJMs6shDdEdT_VAD-30">
          <mxGeometry width="50" height="50" relative="1" as="geometry">
            <mxPoint x="505" y="438" as="sourcePoint" />
            <mxPoint x="555" y="388" as="targetPoint" />
          </mxGeometry>
        </mxCell>
        <mxCell id="m8l0LJMs6shDdEdT_VAD-35" value="Volume from" style="edgeLabel;html=1;align=center;verticalAlign=middle;resizable=0;points=[];" vertex="1" connectable="0" parent="m8l0LJMs6shDdEdT_VAD-34">
          <mxGeometry x="-0.3865" y="3" relative="1" as="geometry">
            <mxPoint x="10" y="-10" as="offset" />
          </mxGeometry>
        </mxCell>
        <mxCell id="m8l0LJMs6shDdEdT_VAD-36" value="&amp;nbsp;Serves as reverse proxy &lt;br&gt;&amp;nbsp;for rest of containers" style="shape=note;size=20;whiteSpace=wrap;html=1;align=left;" vertex="1" parent="1">
          <mxGeometry x="615" y="308" width="170.5" height="60" as="geometry" />
        </mxCell>
        <mxCell id="m8l0LJMs6shDdEdT_VAD-37" value="" style="endArrow=none;dashed=1;html=1;dashPattern=1 3;strokeWidth=2;rounded=0;entryX=0;entryY=0.5;entryDx=0;entryDy=0;entryPerimeter=0;exitX=0;exitY=0;exitDx=0;exitDy=25;exitPerimeter=0;" edge="1" parent="1" source="m8l0LJMs6shDdEdT_VAD-14" target="m8l0LJMs6shDdEdT_VAD-36">
          <mxGeometry width="50" height="50" relative="1" as="geometry">
            <mxPoint x="435" y="288" as="sourcePoint" />
            <mxPoint x="485" y="238" as="targetPoint" />
          </mxGeometry>
        </mxCell>
        <mxCell id="m8l0LJMs6shDdEdT_VAD-38" value="&lt;div&gt;&amp;lt;&amp;lt;Artifact&amp;gt;&amp;gt;&lt;/div&gt;&amp;nbsp;Webgl build" style="rounded=0;whiteSpace=wrap;html=1;align=left;container=1;" vertex="1" parent="1">
          <mxGeometry x="395" y="450" width="120" height="40" as="geometry">
            <mxRectangle width="110" height="40" as="alternateBounds" />
          </mxGeometry>
        </mxCell>
        <mxCell id="hwOO48WI-0XrSRvvIXi3-41" value="" style="whiteSpace=wrap;html=1;shape=mxgraph.basic.document" parent="m8l0LJMs6shDdEdT_VAD-38" vertex="1">
          <mxGeometry x="95" y="10" width="12.5" height="13.33" as="geometry" />
        </mxCell>
      </root>
    </mxGraphModel>
  </diagram>
</mxfile>
